<svg clip-rule="evenodd" fill-rule="evenodd" stroke-linejoin="round" stroke-miterlimit="2" viewBox="0 0 560 400" xmlns="http://www.w3.org/2000/svg"><g transform="matrix(1.62338 0 0 1.62338 100 134.51)"><path d="m66.39 71.619.02-5.619h7c-14.56 16.943-40.154 19.596-57.88 6-1.55-1.59-3.02-5.89 24.27-6h7.2v5.619zm-19.39-27.75v15.06h-42.5c-1.513-2.823-2.672-5.823-3.45-8.93.16-2.23 3.19-5.78 20.39-6.13zm19.39 15.06v-14.79l13.83 10.17c-.594 1.585-1.292 3.128-2.09 4.62zm15.61-26.5-14.23-10.64h10.39c1.788 3.342 3.081 6.926 3.84 10.64zm-35-10.64v15.07h-47c.24-2.665.753-5.298 1.53-7.859v.019c.13-.41.27-.82.41-1.23 1.14-2.06 5.49-5.69 22.06-6zm0-15.58v8.57h-37.74c8.021-9.373 19.759-14.776 32.095-14.776s24.074 5.403 32.095 14.776h-15z" fill="#0087c1"/><path d="m189.21 42.949 16.7-30.8h15.85l-32.55 58.24-25.99-45.18-13.36-.13v44.32h-16.42v-44.32h-22.69l5.77-12.93h56.08zm-96.92.01v-30.73h15.24v59.36l-43.42-31.91v29.72h-14.85v-58.68z" fill="#fcb22d"/></g></svg>